<mxGraphModel dx="954" dy="914" grid="1" gridSize="10" guides="1" tooltips="1" connect="1" arrows="1" fold="1" page="1" pageScale="1" pageWidth="827" pageHeight="1169" math="0" shadow="0"><root><mxCell id="WIyWlLk6GJQsqaUBKTNV-0"/><mxCell id="WIyWlLk6GJQsqaUBKTNV-1" parent="WIyWlLk6GJQsqaUBKTNV-0"/><mxCell id="g7qtW4hyHOJkJTq5nPPv-88" value="" style="rounded=0;whiteSpace=wrap;html=1;strokeColor=none;" parent="WIyWlLk6GJQsqaUBKTNV-1" vertex="1"><mxGeometry x="93.36" y="130" width="776.64" height="580" as="geometry"/></mxCell><mxCell id="13" style="edgeStyle=none;html=1;exitX=1;exitY=0.5;exitDx=0;exitDy=0;entryX=0;entryY=0.5;entryDx=0;entryDy=0;shape=flexArrow;fillColor=#B3B3B3;" edge="1" parent="WIyWlLk6GJQsqaUBKTNV-1" source="1" target="2"><mxGeometry relative="1" as="geometry"/></mxCell><mxCell id="1" value="程序源码" style="rounded=0;whiteSpace=wrap;html=1;fillColor=#ffe6cc;strokeColor=#d79b00;" vertex="1" parent="WIyWlLk6GJQsqaUBKTNV-1"><mxGeometry x="150" y="180" width="120" height="60" as="geometry"/></mxCell><mxCell id="14" style="edgeStyle=none;shape=flexArrow;html=1;exitX=1;exitY=0.5;exitDx=0;exitDy=0;entryX=0;entryY=0.5;entryDx=0;entryDy=0;fillColor=#999999;" edge="1" parent="WIyWlLk6GJQsqaUBKTNV-1" source="2" target="3"><mxGeometry relative="1" as="geometry"/></mxCell><mxCell id="2" value="词法分析" style="rounded=0;whiteSpace=wrap;html=1;fillColor=#ffe6cc;strokeColor=#d79b00;" vertex="1" parent="WIyWlLk6GJQsqaUBKTNV-1"><mxGeometry x="310" y="180" width="120" height="60" as="geometry"/></mxCell><mxCell id="15" style="edgeStyle=none;shape=flexArrow;html=1;exitX=1;exitY=0.5;exitDx=0;exitDy=0;entryX=0;entryY=0.5;entryDx=0;entryDy=0;fillColor=#999999;" edge="1" parent="WIyWlLk6GJQsqaUBKTNV-1" source="3" target="4"><mxGeometry relative="1" as="geometry"/></mxCell><mxCell id="3" value="单词流" style="rounded=0;whiteSpace=wrap;html=1;fillColor=#ffe6cc;strokeColor=#d79b00;" vertex="1" parent="WIyWlLk6GJQsqaUBKTNV-1"><mxGeometry x="470" y="180" width="120" height="60" as="geometry"/></mxCell><mxCell id="16" style="edgeStyle=none;shape=flexArrow;html=1;exitX=0.5;exitY=1;exitDx=0;exitDy=0;fillColor=#B3B3B3;" edge="1" parent="WIyWlLk6GJQsqaUBKTNV-1" source="4" target="8"><mxGeometry relative="1" as="geometry"/></mxCell><mxCell id="4" value="语法分析" style="rounded=0;whiteSpace=wrap;html=1;fillColor=#ffe6cc;strokeColor=#d79b00;" vertex="1" parent="WIyWlLk6GJQsqaUBKTNV-1"><mxGeometry x="630" y="180" width="120" height="60" as="geometry"/></mxCell><mxCell id="5" value="解释执行" style="rounded=0;whiteSpace=wrap;html=1;fillColor=#d5e8d4;strokeColor=#82b366;" vertex="1" parent="WIyWlLk6GJQsqaUBKTNV-1"><mxGeometry x="150" y="290" width="120" height="60" as="geometry"/></mxCell><mxCell id="19" style="edgeStyle=none;shape=flexArrow;html=1;exitX=0;exitY=0.5;exitDx=0;exitDy=0;entryX=1;entryY=0.5;entryDx=0;entryDy=0;fillColor=#B3B3B3;" edge="1" parent="WIyWlLk6GJQsqaUBKTNV-1" source="6" target="5"><mxGeometry relative="1" as="geometry"/></mxCell><mxCell id="6" value="解释器" style="rounded=0;whiteSpace=wrap;html=1;fillColor=#d5e8d4;strokeColor=#82b366;" vertex="1" parent="WIyWlLk6GJQsqaUBKTNV-1"><mxGeometry x="310" y="290" width="120" height="60" as="geometry"/></mxCell><mxCell id="18" style="edgeStyle=none;shape=flexArrow;html=1;exitX=0;exitY=0.5;exitDx=0;exitDy=0;entryX=1;entryY=0.5;entryDx=0;entryDy=0;fillColor=#999999;" edge="1" parent="WIyWlLk6GJQsqaUBKTNV-1" source="7" target="6"><mxGeometry relative="1" as="geometry"/></mxCell><mxCell id="7" value="指令流&lt;br&gt;（可选）" style="rounded=0;whiteSpace=wrap;html=1;fillColor=#d5e8d4;strokeColor=#82b366;" vertex="1" parent="WIyWlLk6GJQsqaUBKTNV-1"><mxGeometry x="470" y="290" width="120" height="60" as="geometry"/></mxCell><mxCell id="17" style="edgeStyle=none;shape=flexArrow;html=1;exitX=0;exitY=0.5;exitDx=0;exitDy=0;entryX=1;entryY=0.5;entryDx=0;entryDy=0;fillColor=#000000;" edge="1" parent="WIyWlLk6GJQsqaUBKTNV-1" source="8" target="7"><mxGeometry relative="1" as="geometry"/></mxCell><mxCell id="20" style="edgeStyle=none;shape=flexArrow;html=1;exitX=0.5;exitY=1;exitDx=0;exitDy=0;fillColor=#000000;" edge="1" parent="WIyWlLk6GJQsqaUBKTNV-1" source="8" target="12"><mxGeometry relative="1" as="geometry"/></mxCell><mxCell id="8" value="抽象语法树" style="rounded=0;whiteSpace=wrap;html=1;fillColor=#ffe6cc;strokeColor=#d79b00;" vertex="1" parent="WIyWlLk6GJQsqaUBKTNV-1"><mxGeometry x="630" y="290" width="120" height="60" as="geometry"/></mxCell><mxCell id="9" value="目标代码" style="rounded=0;whiteSpace=wrap;html=1;" vertex="1" parent="WIyWlLk6GJQsqaUBKTNV-1"><mxGeometry x="150" y="410" width="120" height="60" as="geometry"/></mxCell><mxCell id="23" style="edgeStyle=none;shape=flexArrow;html=1;exitX=0;exitY=0.5;exitDx=0;exitDy=0;entryX=1;entryY=0.5;entryDx=0;entryDy=0;fillColor=#B3B3B3;" edge="1" parent="WIyWlLk6GJQsqaUBKTNV-1" source="10" target="9"><mxGeometry relative="1" as="geometry"/></mxCell><mxCell id="10" value="生成器" style="rounded=0;whiteSpace=wrap;html=1;" vertex="1" parent="WIyWlLk6GJQsqaUBKTNV-1"><mxGeometry x="310" y="410" width="120" height="60" as="geometry"/></mxCell><mxCell id="22" style="edgeStyle=none;shape=flexArrow;html=1;exitX=0;exitY=0.5;exitDx=0;exitDy=0;entryX=1;entryY=0.5;entryDx=0;entryDy=0;fillColor=#999999;" edge="1" parent="WIyWlLk6GJQsqaUBKTNV-1" source="11" target="10"><mxGeometry relative="1" as="geometry"/></mxCell><mxCell id="11" value="中间代码&lt;br&gt;（可选）" style="rounded=0;whiteSpace=wrap;html=1;" vertex="1" parent="WIyWlLk6GJQsqaUBKTNV-1"><mxGeometry x="470" y="410" width="120" height="60" as="geometry"/></mxCell><mxCell id="21" style="edgeStyle=none;shape=flexArrow;html=1;exitX=0;exitY=0.5;exitDx=0;exitDy=0;entryX=1;entryY=0.5;entryDx=0;entryDy=0;fillColor=#B3B3B3;" edge="1" parent="WIyWlLk6GJQsqaUBKTNV-1" source="12" target="11"><mxGeometry relative="1" as="geometry"/></mxCell><mxCell id="12" value="优化器&lt;br&gt;（可选）" style="rounded=0;whiteSpace=wrap;html=1;" vertex="1" parent="WIyWlLk6GJQsqaUBKTNV-1"><mxGeometry x="630" y="410" width="120" height="60" as="geometry"/></mxCell></root></mxGraphModel>